# xmcd
#
# Track frame offsets:
#	150
#	16038
#	34294
#	46086
#	59597
#	71435
#	91379
#	103411
#	115701
#	130882
#	141243
#
# Disc length: 2005 seconds
#
# Revision: 1
# Processed by: cddbd v1.5.2PL0 Copyright (c) Steve Scherf et al.
# Submitted via: audiograbber 1.83.01
#
DISCID=9707d30b
DTITLE=John McLeod - moving on
DYEAR=2009
DGENRE=Country
TTITLE0=Nashville Nights
TTITLE1=California Driller
TTITLE2=Metis Indian Song
TTITLE3=Bobby McGee
TTITLE4=Steel Rail Blues
TTITLE5=Back Home Again
TTITLE6=Everybody Has The Blues
TTITLE7=By My Side
TTITLE8=Stand By My Woman Man
TTITLE9=I'm Just Me
TTITLE10=Save The Last Walz
EXTD=
EXTT0=
EXTT1=
EXTT2=
EXTT3=
EXTT4=
EXTT5=
EXTT6=
EXTT7=
EXTT8=
EXTT9=
EXTT10=
PLAYORDER=
